<?xml version="1.0" encoding="UTF-8"?>
<svg xmlns="http://www.w3.org/2000/svg" viewBox="0 0 160.63 210.78">
  <defs>
    <style>
      .cls-1 {
        stroke-width: 4px;
      }

      .cls-1, .cls-2 {
        fill: none;
        stroke: #fff;
        stroke-miterlimit: 10;
      }

      .cls-3 {
        fill: red;
      }

      .cls-2 {
        stroke-width: 3px;
      }
    </style>
  </defs>
  <g id="base">
    <g>
      <path class="cls-3" d="M17.56,52.41c-4.55-2.37-8.15-5.63-10.81-9.79-2.66-4.16-3.99-8.84-3.99-14.03s1.38-9.58,4.14-13.72c2.76-4.14,6.46-7.4,11.08-9.79,4.62-2.39,9.54-3.59,14.76-3.59,3.61,0,6.48,.29,8.6,.86,2.12,.58,4.57,1.58,7.36,3v2.55c-2.63-1.61-5.07-2.75-7.32-3.41-2.25-.67-5.05-1-8.41-1-5.11,0-9.77,1.16-13.98,3.48-4.21,2.32-7.54,5.42-9.99,9.31-2.45,3.88-3.68,8.06-3.68,12.51s1.24,8.69,3.72,12.55c2.48,3.86,5.77,6.93,9.88,9.2,4.11,2.27,8.53,3.41,13.29,3.41,3.41,0,6.38-.36,8.91-1.07,2.53-.71,5.06-1.83,7.59-3.34v2.55c-2.48,1.33-5.02,2.31-7.63,2.93-2.61,.62-5.46,.93-8.56,.93-5.42,0-10.41-1.18-14.95-3.55Z"/>
      <path d="M56.73,25.39h1.6v4.63c.67-1.45,1.64-2.6,2.92-3.43,1.28-.83,2.74-1.25,4.38-1.25,1.03,0,2.08,.19,3.15,.58v1.65c-.97-.65-2.05-.98-3.25-.98s-2.36,.33-3.48,.98c-1.12,.65-2.02,1.53-2.7,2.63-.68,1.1-1.02,2.27-1.02,3.52v11.7h-1.6V25.39Z"/>
      <path d="M88.63,43.5c1.57-.8,2.87-1.9,3.9-3.29v2.27c-1.23,1.22-2.58,2.1-4.05,2.65-1.47,.55-3.13,.82-5,.82-2.07,0-4.01-.49-5.82-1.47-1.82-.98-3.27-2.28-4.35-3.92-1.08-1.63-1.62-3.37-1.62-5.21,0-1.99,.53-3.77,1.6-5.36,1.07-1.59,2.52-2.83,4.38-3.72,1.85-.89,3.91-1.33,6.17-1.33,3.47,0,6.42,1.22,8.85,3.65l-15.7,13.79c1.1,.8,2.17,1.39,3.2,1.76,1.03,.37,2.2,.56,3.5,.56,1.73,0,3.38-.4,4.95-1.2Zm-12.6-1.96l14.65-12.95c-1.1-.86-2.17-1.48-3.2-1.85-1.03-.37-2.27-.56-3.7-.56-2.03,0-3.84,.39-5.43,1.18-1.58,.79-2.82,1.86-3.73,3.23-.9,1.36-1.35,2.91-1.35,4.63,0,2.46,.92,4.57,2.75,6.32Z"/>
      <path d="M102.33,44.48c-1.83-.95-3.28-2.23-4.35-3.85-1.07-1.62-1.6-3.36-1.6-5.23s.53-3.61,1.6-5.23c1.07-1.62,2.52-2.9,4.35-3.85,1.83-.95,3.82-1.42,5.95-1.42s4.22,.51,6.15,1.54c1.93,1.02,3.28,2.35,4.05,3.98v-5.03h1.6v20.02h-1.6v-4.98c-.9,1.66-2.29,2.99-4.18,3.98-1.88,.99-3.89,1.49-6.02,1.49s-4.12-.47-5.95-1.42Zm11.15-1.09c1.57-.85,2.81-1.97,3.72-3.38,.92-1.41,1.38-2.94,1.38-4.61s-.47-3.16-1.4-4.58c-.93-1.42-2.18-2.56-3.75-3.4-1.57-.85-3.27-1.27-5.1-1.27s-3.54,.43-5.12,1.29c-1.58,.86-2.85,2-3.8,3.43-.95,1.42-1.42,2.95-1.42,4.58s.47,3.15,1.42,4.56c.95,1.41,2.23,2.54,3.83,3.38,1.6,.85,3.32,1.27,5.15,1.27s3.53-.42,5.1-1.27Z"/>
      <path d="M128.3,43.68c-1.62-1.33-2.42-3.17-2.42-5.52V17.33h1.6v8.05h6.9v1.25h-6.9v11.52c0,1.96,.66,3.49,1.97,4.61,1.32,1.11,2.98,1.67,4.98,1.67v1.25c-2.47,0-4.51-.67-6.12-2Z"/>
      <path d="M154.53,43.5c1.57-.8,2.87-1.9,3.9-3.29v2.27c-1.23,1.22-2.58,2.1-4.05,2.65-1.47,.55-3.13,.82-5,.82-2.07,0-4.01-.49-5.83-1.47-1.82-.98-3.27-2.28-4.35-3.92-1.08-1.63-1.62-3.37-1.62-5.21,0-1.99,.53-3.77,1.6-5.36,1.07-1.59,2.52-2.83,4.38-3.72,1.85-.89,3.91-1.33,6.17-1.33,3.47,0,6.42,1.22,8.85,3.65l-15.7,13.79c1.1,.8,2.17,1.39,3.2,1.76,1.03,.37,2.2,.56,3.5,.56,1.73,0,3.38-.4,4.95-1.2Zm-12.6-1.96l14.65-12.95c-1.1-.86-2.17-1.48-3.2-1.85-1.03-.37-2.27-.56-3.7-.56-2.03,0-3.84,.39-5.42,1.18-1.58,.79-2.83,1.86-3.73,3.23-.9,1.36-1.35,2.91-1.35,4.63,0,2.46,.92,4.57,2.75,6.32Z"/>
      <path d="M6.92,131.52c-1.83-.95-3.28-2.23-4.35-3.85-1.07-1.62-1.6-3.36-1.6-5.23s.53-3.61,1.6-5.23c1.07-1.62,2.52-2.9,4.35-3.85,1.83-.95,3.82-1.42,5.95-1.42s4.22,.51,6.15,1.54c1.93,1.02,3.28,2.35,4.05,3.98v-5.03h1.6v20.02h-1.6v-4.98c-.9,1.66-2.29,2.99-4.18,3.98-1.88,.99-3.89,1.49-6.02,1.49s-4.12-.47-5.95-1.42Zm11.15-1.09c1.57-.85,2.81-1.97,3.72-3.38,.92-1.41,1.38-2.94,1.38-4.61s-.47-3.16-1.4-4.58c-.93-1.42-2.18-2.56-3.75-3.4-1.57-.84-3.27-1.27-5.1-1.27s-3.54,.43-5.12,1.29c-1.58,.86-2.85,2-3.8,3.43s-1.42,2.95-1.42,4.58,.47,3.15,1.42,4.56,2.23,2.54,3.83,3.38c1.6,.84,3.32,1.27,5.15,1.27s3.53-.42,5.1-1.27Z"/>
      <path d="M30.97,112.43h1.6v4.45c.73-1.48,1.98-2.68,3.75-3.58,1.77-.91,3.72-1.36,5.85-1.36,2.77,0,4.96,.78,6.57,2.34,1.62,1.56,2.43,3.73,2.43,6.52v11.66h-1.6v-11.66c0-2.4-.66-4.27-1.98-5.61-1.32-1.33-3.16-2-5.52-2-1.73,0-3.33,.35-4.77,1.05-1.45,.7-2.6,1.65-3.45,2.87s-1.27,2.6-1.27,4.14v11.21h-1.6v-20.02Z"/>
      <path d="M62.09,131.52c-1.82-.95-3.26-2.22-4.32-3.83-1.07-1.6-1.6-3.35-1.6-5.25s.53-3.65,1.6-5.25c1.07-1.6,2.51-2.88,4.32-3.83,1.82-.95,3.81-1.42,5.98-1.42s4.1,.5,6,1.49c1.9,1,3.3,2.29,4.2,3.89v-18.24h1.6v33.37h-1.6v-4.85c-1,1.6-2.44,2.89-4.33,3.87-1.88,.98-3.84,1.47-5.88,1.47-2.17,0-4.16-.47-5.98-1.42Zm11.05-1.09c1.58-.85,2.85-1.97,3.8-3.38s1.42-2.93,1.42-4.56-.47-3.16-1.42-4.58-2.22-2.57-3.8-3.43c-1.58-.86-3.29-1.29-5.12-1.29s-3.53,.42-5.1,1.27c-1.57,.85-2.82,1.98-3.75,3.4-.93,1.42-1.4,2.95-1.4,4.58s.46,3.2,1.38,4.61c.92,1.41,2.17,2.54,3.75,3.38,1.58,.84,3.29,1.27,5.12,1.27s3.54-.42,5.12-1.27Z"/>
      <path class="cls-3" d="M5.99,152.23h2.79c10.39,0,18.41,2.52,24.07,7.55,5.66,5.04,8.49,12.2,8.49,21.5,0,5.32-1.45,10.2-4.35,14.64-2.9,4.44-6.83,7.95-11.79,10.53-4.96,2.58-10.43,3.87-16.41,3.87h-2.79v-58.09Zm3.48,55.69c5.34,0,10.21-1.17,14.62-3.52,4.41-2.35,7.91-5.56,10.49-9.64,2.58-4.08,3.87-8.57,3.87-13.48,0-8.57-2.51-15.17-7.53-19.79-5.02-4.62-12.17-6.93-21.45-6.93h-.7v53.37h.7Z"/>
      <path d="M64.47,196.05c1.57-.8,2.87-1.9,3.9-3.29v2.27c-1.23,1.22-2.58,2.1-4.05,2.65-1.47,.55-3.13,.82-5,.82-2.07,0-4.01-.49-5.82-1.47-1.82-.98-3.27-2.28-4.35-3.92-1.08-1.63-1.62-3.37-1.62-5.21,0-1.99,.53-3.77,1.6-5.36,1.07-1.59,2.52-2.83,4.38-3.71,1.85-.89,3.91-1.33,6.17-1.33,3.47,0,6.42,1.22,8.85,3.65l-15.7,13.79c1.1,.8,2.17,1.39,3.2,1.76,1.03,.37,2.2,.56,3.5,.56,1.73,0,3.38-.4,4.95-1.2Zm-12.6-1.96l14.65-12.95c-1.1-.86-2.17-1.48-3.2-1.85-1.03-.37-2.27-.56-3.7-.56-2.03,0-3.84,.39-5.43,1.18-1.58,.79-2.82,1.86-3.73,3.23-.9,1.37-1.35,2.91-1.35,4.63,0,2.46,.92,4.57,2.75,6.32Z"/>
      <path d="M74.72,197.72c-1.23-.49-2.12-1.12-2.65-1.89v-2.36c.63,1.28,1.5,2.22,2.6,2.83,1.1,.61,2.5,.91,4.2,.91s2.95-.45,3.95-1.36,1.5-2.07,1.5-3.49c0-1.22-.28-2.16-.85-2.83-.57-.67-1.48-1.34-2.75-2.02l-1.9-.98c-1.37-.74-2.39-1.33-3.08-1.76-.68-.43-1.23-.92-1.62-1.47s-.6-1.19-.6-1.94c0-1.19,.47-2.14,1.4-2.85,.93-.71,2.15-1.07,3.65-1.07,1.83,0,3.37,.37,4.6,1.11v1.96c-1.03-1.22-2.52-1.82-4.45-1.82-1.07,0-1.93,.24-2.6,.71-.67,.47-1,1.08-1,1.82,0,.65,.2,1.22,.6,1.71,.4,.49,.96,.94,1.67,1.36,.72,.42,1.91,1.04,3.58,1.87,1.7,.86,2.95,1.74,3.75,2.65,.8,.91,1.2,2.08,1.2,3.54,0,1.84-.67,3.31-2.02,4.43-1.35,1.11-2.99,1.67-4.92,1.67-1.6,0-3.02-.24-4.25-.73Z"/>
      <path d="M91.65,172.91c-.35-.3-.52-.67-.52-1.11,0-.42,.17-.77,.52-1.07s.76-.45,1.23-.45,.88,.15,1.23,.45c.35,.3,.52,.65,.52,1.07,0,.45-.18,.82-.52,1.11-.35,.3-.76,.45-1.23,.45s-.88-.15-1.23-.45Zm.42,5.03h1.6v20.02h-1.6v-20.02Z"/>
      <path d="M106.42,206.06c-1.8-.77-3.2-1.78-4.2-3.03v-2.05c.87,1.42,2.23,2.61,4.08,3.56,1.85,.95,3.74,1.42,5.67,1.42,3.2,0,5.67-.84,7.4-2.51,1.73-1.68,2.6-4.13,2.6-7.36v-2.98c-.9,1.6-2.31,2.9-4.23,3.89-1.92,.99-3.92,1.49-6.02,1.49s-4.12-.47-5.95-1.42c-1.83-.95-3.28-2.23-4.35-3.85-1.07-1.62-1.6-3.36-1.6-5.23s.53-3.61,1.6-5.23c1.07-1.62,2.52-2.9,4.35-3.85,1.83-.95,3.82-1.42,5.95-1.42s4.23,.49,6.1,1.47c1.87,.98,3.25,2.3,4.15,3.96v-4.98h1.6v18.16c0,3.65-.99,6.42-2.98,8.3-1.98,1.88-4.86,2.83-8.62,2.83-1.9,0-3.75-.39-5.55-1.16Zm10.5-10.08c1.57-.84,2.81-1.97,3.72-3.38,.92-1.41,1.38-2.94,1.38-4.61s-.46-3.2-1.38-4.61c-.92-1.41-2.16-2.54-3.72-3.38-1.57-.85-3.27-1.27-5.1-1.27s-3.59,.42-5.18,1.27c-1.58,.85-2.85,1.97-3.8,3.38-.95,1.41-1.42,2.94-1.42,4.61s.47,3.2,1.42,4.61c.95,1.41,2.22,2.54,3.8,3.38,1.58,.85,3.31,1.27,5.18,1.27s3.53-.42,5.1-1.27Z"/>
      <path d="M129.87,177.94h1.6v4.45c.73-1.48,1.98-2.68,3.75-3.58,1.77-.91,3.72-1.36,5.85-1.36,2.77,0,4.96,.78,6.58,2.34,1.62,1.56,2.42,3.73,2.42,6.52v11.66h-1.6v-11.66c0-2.4-.66-4.27-1.97-5.61-1.32-1.33-3.16-2-5.53-2-1.73,0-3.33,.35-4.78,1.05-1.45,.7-2.6,1.65-3.45,2.87-.85,1.22-1.28,2.6-1.28,4.14v11.21h-1.6v-20.02Z"/>
    </g>
  </g>
  <!-- <g id="mask">
    <path id="d-n" class="cls-2" d="M130.51,177.75c.65,17.31,.38,20.97,0,21-.64,.05-3.31-10.23,1-16,2-2.67,5-4,5-4,.99-.44,2.71-1.18,5-1,.82,.06,3.24,.25,5,2,.37,.37,1.17,1.27,2,5,.36,1.63,.9,4.58,1,11,.03,1.68,.01,3.07,0,4"/>
    <path id="d-g" class="cls-2" d="M121.51,184.75c-.49-.91-2.57-4.58-7-6-.99-.32-3.81-1.18-7,0-2.81,1.03-4.32,3.05-5,4-.76,1.05-1.94,2.68-2,5-.04,1.71,.54,2.99,1,4,.4,.88,1.2,2.59,3,4,1.91,1.5,3.89,1.83,5,2,1.02,.16,5.18,.72,9-2,2.37-1.69,3.51-3.86,4-5l.3-12.81c-.08,9.31-.11,16.15,0,19.31,.01,.36,.05,1.32-.3,2.5-.83,2.82-3.14,4.41-4,5-1.07,.73-3.17,1.91-6,2-2.16,.07-3.76-.52-5-1-2.64-1.01-4.62-2.58-6-4"/>
    <path id="d-i" class="cls-2" d="M92.51,172.75c.5,.44,1.05,.93,1,1-.03,.04-.33-.13-.42-.18-.2-.12-1.74-1.02-1.58-1.82,0,0,.03-.16,1-1h0c.16-.06,.74-.26,1,0,.23,.23,.09,.68,0,1-.82,2.84-.97,3.78-1,4-.02,.17,0,.11,0,2v23"/>
    <path id="d-s" class="cls-2" d="M84.51,179.75c-.23-.23-2.71-2.66-6-2-1.53,.31-3.83,1.4-4,3-.25,2.29,3.94,4.81,6,6,1.47,.85,2.18,1,3,2,1.11,1.36,2.05,3.83,1,6-1.24,2.57-4.37,2.93-5,3-4.57,.52-7.77-3.69-8-4"/>
    <path id="d-e" class="cls-2" d="M51.51,194.75c5.31-4.5,10.62-9.01,15.93-13.51,.01-.05,.05-.23,0-.44-.52-2.39-10.78-4.65-15.93-.05-2.34,2.09-3,5-3,5-.11,.49-.42,2.05,0,4,.69,3.19,2.84,5.15,4,6,2.06,1.52,4.1,1.86,5,2,1.08,.17,4.07,.48,7-1,1.74-.88,3.21-2.26,4-3,.43-.4,.77-.75,1-1"/>
    <path id="d-d" class="cls-1" d="M7.01,153.25c.48,0,1.17-.01,2,0,3.19,.05,8.7,.15,14,2,2.18,.76,6.63,2.31,10.5,6.5,4.47,4.83,5.51,10.28,6,13,1.22,6.82-.39,12.2-1,14-2.16,6.37-6.04,10.14-8,12-1.7,1.62-4.52,4.24-9,6-4.46,1.75-8.69,1.91-11,2-1.25,.05-2.28,.03-3,0v-55l.5-2.5"/>
    <path id="a-d" class="cls-2" d="M78.51,118.75c-2.54-3.91-6.74-6.28-11-6-4.36,.29-7.26,3.24-8,4-1.17,1.2-2.67,2.73-3,5-.58,4.04,2.95,8.33,7,10,4.24,1.75,9.03,.61,12-2,2.26-1.99,3.22-4.62,4-9,1.98-11.15,.71-22.04,0-22-.59,.04-.86,7.62,0,35"/>
    <path id="a-n" class="cls-2" d="M31.51,111.75c.34,16.39,.23,20.99,0,21-.28,.01-.91-6.75,1-13,.48-1.56,1.23-3.47,3-5,1.6-1.38,3.33-1.83,4-2,2.13-.53,3.94-.26,5,0,1.12,.28,2.7,.67,4,2,1.41,1.44,1.71,3.19,2,5,.37,2.3,.15,3.78,0,6-.12,1.87-.21,4.6,0,8"/>
    <path id="a-a" class="cls-2" d="M23.51,118.75c-.49-.67-4.5-6.01-11-6-.92,0-4.9,0-8,3-.67,.65-2.8,2.71-3,6-.19,3.13,1.49,5.35,2,6,1.34,1.71,2.9,2.48,4,3,1.44,.68,4.93,2.34,9,1,.54-.18,4.2-1.45,6-5,.47-.93,.83-2.02,1-7,.08-2.21,.11-4.91,0-8v21"/>
    <path id="c-e2" class="cls-2" d="M141.51,42.75c1.58-1.71,2.98-3.06,4-4,2.04-1.89,3.64-3.36,6-5,1.37-.95,2.65-2.02,4-3,1.44-1.05,1.97-1.41,2-2,.06-1.36-2.61-2.55-4-3-3.17-1.03-6.04-.29-7,0-1.18,.36-6.66,2.01-8,7-.84,3.11,.38,5.87,1,7,1.33,2.44,3.31,3.6,4,4,3.78,2.16,7.66,1.3,9,1,.88-.2,3.56-.83,6-3,.43-.39,.77-.74,1-1"/>
    <path id="c-t" class="cls-2" d="M134.51,25.75h-8v-9.2c.12,14.17,.09,19.99,0,21.2,0,.1-.04,.49,0,1,.11,1.42,.69,2.5,1,3,1.35,2.18,3.58,2.88,4,3,1.79,.52,3.32,.19,4,0"/>
    <path id="c-a" class="cls-2" d="M119.51,33.75c-.1-.27-2.52-6.82-9-8-.29-.05-5.97-1-10,3-.64,.64-2.64,2.68-3,6-.39,3.62,1.43,6.25,2,7,2.42,3.2,6.48,4.48,10,4,3.91-.53,6.27-3.17,7-4,.44-.5,2.32-2.68,3-6,.39-1.9,.05-2.54,0-9-.01-1.32,0-1.68,0-3v22"/>
    <path id="c-e1" class="cls-2" d="M76.51,41.75c9.25-9.15,13.45-12.54,15.2-13.31,.17-.08,.79-.33,.8-.69,0-1.15-6.52-1.94-7-2-2.26-.27-3.42-.39-5,0-1.91,.47-3.19,1.4-4,2-1.37,1.01-3.3,2.44-4,5-.49,1.77-.16,3.29,0,4,.42,1.85,1.31,3.06,2,4,.51,.69,1.49,2.01,3,3,3.51,2.29,7.71,1.3,9,1,3.58-.84,5.92-2.9,7-4"/>
    <path id="c-r" class="cls-2" d="M57.51,24.75c0,1.46,0,3.46,0,5.84-.02,11.69-.12,16.15,0,16.16,.31,.01,1.68-14.78,1-17-.04-.13-.2-.58,0-1,.26-.55,.94-.6,2-1,.92-.34,.66-.4,2-1,1.08-.49,1.89-.84,3-1,.62-.09,1.22-.18,2,0,.99,.23,1.67,.75,2,1,.46,.36,.79,.73,1,1"/>
    <path id="c-c" class="cls-1" d="M50.01,7.25c-2.47-1.81-6.55-4.22-12-5-4.96-.71-8.84,.23-12,1-2.33,.57-5.94,1.48-10,4-1.77,1.1-4.48,2.81-7,6-.86,1.09-4.12,5.4-5,12-.25,1.85-.76,6.09,1,11,1.28,3.55,3.15,5.79,5,8,1.6,1.92,3.97,4.69,8,7,.89,.51,3.81,2.11,8,3,5.41,1.15,9.72,.41,12,0,4.7-.84,8.42-2.53,11-4"/>
  </g> -->
</svg>